<mxfile host="app.diagrams.net" agent="Mozilla/5.0 (Macintosh; Intel Mac OS X 10_15_7) AppleWebKit/537.36 (KHTML, like Gecko) Chrome/128.0.0.0 Safari/537.36" version="24.7.16">
  <diagram name="Page-1" id="jbndvAZ3bb-QctPD9Ckj">
    <mxGraphModel grid="1" page="1" gridSize="10" guides="1" tooltips="1" connect="1" arrows="1" fold="1" pageScale="1" pageWidth="850" pageHeight="1100" math="0" shadow="0">
      <root>
        <mxCell id="0" />
        <mxCell id="1" parent="0" />
        <mxCell id="trXTAsS6mT6lb1HR7hWI-5" style="edgeStyle=orthogonalEdgeStyle;rounded=0;orthogonalLoop=1;jettySize=auto;html=1;entryX=0;entryY=0.5;entryDx=0;entryDy=0;" edge="1" parent="1" source="trXTAsS6mT6lb1HR7hWI-2" target="trXTAsS6mT6lb1HR7hWI-7">
          <mxGeometry relative="1" as="geometry">
            <mxPoint x="320" y="220" as="targetPoint" />
          </mxGeometry>
        </mxCell>
        <mxCell id="trXTAsS6mT6lb1HR7hWI-2" value="URL" style="rounded=0;whiteSpace=wrap;html=1;" vertex="1" parent="1">
          <mxGeometry x="170" y="200" width="110" height="40" as="geometry" />
        </mxCell>
        <mxCell id="trXTAsS6mT6lb1HR7hWI-9" value="" style="edgeStyle=orthogonalEdgeStyle;rounded=0;orthogonalLoop=1;jettySize=auto;html=1;" edge="1" parent="1" source="trXTAsS6mT6lb1HR7hWI-7">
          <mxGeometry relative="1" as="geometry">
            <mxPoint x="450" y="220.03999999999996" as="targetPoint" />
          </mxGeometry>
        </mxCell>
        <mxCell id="trXTAsS6mT6lb1HR7hWI-7" value="Web scraper" style="rounded=0;whiteSpace=wrap;html=1;" vertex="1" parent="1">
          <mxGeometry x="310" y="200" width="110" height="40" as="geometry" />
        </mxCell>
        <mxCell id="trXTAsS6mT6lb1HR7hWI-17" style="edgeStyle=orthogonalEdgeStyle;rounded=0;orthogonalLoop=1;jettySize=auto;html=1;entryX=0;entryY=0.5;entryDx=0;entryDy=0;" edge="1" parent="1" source="trXTAsS6mT6lb1HR7hWI-11" target="trXTAsS6mT6lb1HR7hWI-15">
          <mxGeometry relative="1" as="geometry" />
        </mxCell>
        <mxCell id="trXTAsS6mT6lb1HR7hWI-18" style="edgeStyle=orthogonalEdgeStyle;rounded=0;orthogonalLoop=1;jettySize=auto;html=1;entryX=0;entryY=0.5;entryDx=0;entryDy=0;" edge="1" parent="1" source="trXTAsS6mT6lb1HR7hWI-11" target="trXTAsS6mT6lb1HR7hWI-16">
          <mxGeometry relative="1" as="geometry" />
        </mxCell>
        <mxCell id="trXTAsS6mT6lb1HR7hWI-11" value="Cloud" style="ellipse;shape=cloud;whiteSpace=wrap;html=1;" vertex="1" parent="1">
          <mxGeometry x="440" y="180" width="120" height="80" as="geometry" />
        </mxCell>
        <mxCell id="trXTAsS6mT6lb1HR7hWI-15" value="E.g. Amazon" style="rounded=0;whiteSpace=wrap;html=1;" vertex="1" parent="1">
          <mxGeometry x="560" y="140" width="110" height="40" as="geometry" />
        </mxCell>
        <mxCell id="trXTAsS6mT6lb1HR7hWI-16" value="E.g. Hey Marvin AI" style="rounded=0;whiteSpace=wrap;html=1;" vertex="1" parent="1">
          <mxGeometry x="560" y="260" width="110" height="40" as="geometry" />
        </mxCell>
      </root>
    </mxGraphModel>
  </diagram>
</mxfile>
